<svg width="650" height="452" viewBox="0 0 650 452" fill="none" xmlns="http://www.w3.org/2000/svg">
<path d="M543.099 69.5018L492.956 69.9898C490.6 58.3983 482.681 27.9839 489.812 19.688C490.137 16.5657 491.655 13.6889 494.05 11.6565C496.445 9.62415 499.532 8.59278 502.669 8.77712C510.441 -3.37639 523.386 -1.55162 532.135 6.03878C540.94 9.07409 544.26 14.4665 543.099 21.7842C549.62 27.4866 550.823 34.4244 547.896 42.3217L543.099 69.5018Z" fill="#2F2E41"/>
<path d="M538.272 100.361L502.095 95.3565L494.86 84.7922C504.827 78.1875 508.354 68.9625 503.765 56.4355L528.81 55.8794C527.637 67.035 531.329 75.6724 541.611 80.9001L538.272 100.361Z" fill="#FFB9B9"/>
<path d="M493.543 426.342L492.159 445.235C492.097 446.09 492.218 446.949 492.515 447.753C492.811 448.558 493.277 449.289 493.88 449.899C494.483 450.51 495.21 450.984 496.011 451.29C496.813 451.597 497.671 451.729 498.527 451.677L508.241 451.089C508.691 451.062 509.129 450.936 509.525 450.72C509.921 450.504 510.264 450.204 510.531 449.841C510.798 449.477 510.981 449.06 511.068 448.618C511.155 448.176 511.143 447.72 511.033 447.283L505.642 425.738L493.543 426.342Z" fill="#E6E6E6"/>
<path d="M524.989 425.738L519.597 447.283C519.488 447.72 519.476 448.176 519.563 448.618C519.65 449.06 519.833 449.477 520.1 449.841C520.366 450.204 520.71 450.504 521.106 450.72C521.501 450.936 521.94 451.062 522.39 451.089L532.103 451.677C532.96 451.728 533.818 451.597 534.619 451.29C535.421 450.984 536.148 450.51 536.751 449.899C537.354 449.289 537.819 448.558 538.116 447.753C538.413 446.948 538.534 446.09 538.471 445.235L537.088 426.342L524.989 425.738Z" fill="#E6E6E6"/>
<path d="M537.715 428.965L524.607 427.651L511.557 288.294L506.625 427.202L493.747 426.741L472.041 234.36H554.968L537.715 428.965Z" fill="#1E90FF"/>
<path d="M517.679 65.3317C531.511 65.3317 542.724 54.1296 542.724 40.311C542.724 26.4925 531.511 15.2904 517.679 15.2904C503.847 15.2904 492.634 26.4925 492.634 40.311C492.634 54.1296 503.847 65.3317 517.679 65.3317Z" fill="#FFB9B9"/>
<path d="M567.213 238.808L465.919 239.92C480.952 182.749 489.944 129.642 474.268 93.1324L499.313 80.9001C511.389 93.4836 524.838 92.1863 539.385 79.7881L563.317 85.9042C559.218 133.781 561.055 185.057 567.213 238.808Z" fill="#1E90FF"/>
<path d="M438.091 179.871L500.982 204.891L515.043 209.023C515.672 209.208 516.332 209.264 516.983 209.187C517.634 209.111 518.263 208.904 518.832 208.578C519.401 208.253 519.898 207.816 520.294 207.294C520.69 206.772 520.976 206.175 521.135 205.54C521.413 204.425 521.288 203.249 520.781 202.218C520.274 201.187 519.418 200.369 518.365 199.909L503.765 195.439L459.797 169.862L468.98 145.676L449.779 135.39L438.091 179.871Z" fill="#FFB9B9"/>
<path d="M438.648 134.277C450.613 138.941 460.131 146.9 467.589 157.63L490.964 123.713L474.268 93.1324L438.648 134.277Z" fill="#1E90FF"/>
<path d="M545.906 36.256C535.741 33.6394 525.747 33.2802 516.032 36.599C509.843 39.5934 502.411 39.3175 494.146 36.8503V11.8872L538.767 13.0759L545.906 36.256Z" fill="#2F2E41"/>
<path d="M500.774 150.718C498.807 150.721 496.922 151.502 495.531 152.891C494.14 154.281 493.358 156.164 493.356 158.129L496.284 219.36C496.286 221.324 497.068 223.208 498.459 224.597C499.849 225.986 501.735 226.768 503.702 226.77H537.177C539.143 226.768 541.029 225.986 542.42 224.597C543.81 223.208 544.592 221.324 544.595 219.36L547.523 158.129C547.52 156.164 546.738 154.281 545.347 152.891C543.957 151.502 542.071 150.721 540.105 150.718H500.774Z" fill="#3F3D56"/>
<path d="M595.753 175.245L540.935 197.051L536.799 198.697C536.667 198.748 536.535 198.792 536.396 198.836L522.54 202.909C520.769 203.428 518.316 201.044 516.882 199.399C516.171 198.606 515.769 197.585 515.747 196.521C515.726 195.457 516.087 194.421 516.765 193.6C516.956 193.379 517.167 193.176 517.394 192.993C517.928 192.578 518.557 192.301 519.224 192.188L533.066 189.468C533.562 189.371 534.04 189.193 534.479 188.942L540.935 185.183L574.452 165.687C575.384 165.146 576.094 164.292 576.454 163.277C576.815 162.262 576.803 161.152 576.421 160.144L570.024 143.289C569.631 142.257 569.628 141.119 570.015 140.085C570.401 139.052 571.151 138.194 572.124 137.673L582.724 131.998C583.329 131.673 584.001 131.49 584.688 131.462C585.374 131.434 586.059 131.562 586.689 131.837C587.319 132.111 587.878 132.525 588.325 133.047C588.772 133.569 589.094 134.185 589.267 134.85L598.468 169.863C598.751 170.937 598.631 172.077 598.131 173.068C597.631 174.059 596.785 174.834 595.753 175.245Z" fill="#FFB9B9"/>
<path d="M598.937 128.161C586.971 132.825 577.454 140.784 569.996 151.514L546.62 117.597L563.317 85.9042L598.937 128.161Z" fill="#1E90FF"/>
<path d="M534.347 62.5807C523.39 67.1337 511.902 66.9488 499.944 62.5807C503.423 56.6472 498.222 52.0001 495.552 46.0104L540.203 44.6848C536.788 49.8882 531.75 56.0359 534.347 62.5807Z" fill="white"/>
<path d="M539.73 45.6749L539.212 45.1579L539.944 44.4266L544.316 39.3282L544.873 39.8035L540.481 44.9224L539.73 45.6749Z" fill="white"/>
<path d="M492.492 42.5757L492.023 43.1378L496.415 46.7941L496.884 46.2321L492.492 42.5757Z" fill="white"/>
<path d="M540.991 49.974L533.304 62.0388L533.921 62.4315L541.609 50.3668L540.991 49.974Z" fill="white"/>
<path d="M493.299 49.9731L492.681 50.3658L500.367 62.4317L500.984 62.039L493.299 49.9731Z" fill="white"/>
<path d="M542.399 184.149V197.397L537.782 199.233C537.635 199.29 537.488 199.339 537.333 199.388L521.866 203.935C519.888 204.514 517.151 201.853 515.55 200.017C514.757 199.132 514.308 197.992 514.284 196.804C514.26 195.617 514.663 194.46 515.419 193.544C515.633 193.298 515.868 193.071 516.122 192.866C516.718 192.403 517.42 192.094 518.164 191.968L533.615 188.932C534.169 188.823 534.702 188.625 535.192 188.344L542.399 184.149Z" fill="white"/>
<path d="M549.089 136.894H546.444C546.444 99.519 538.741 73.4726 531.234 73.4726L530.573 70.83C537.305 70.83 541.597 81.6703 544.012 90.7645C547.286 103.093 549.089 119.476 549.089 136.894Z" fill="#3F3D56"/>
<path d="M488.25 127.645H485.605C485.605 93.4155 493.361 72.1513 504.782 72.1513L504.121 74.7939C496.221 74.7939 488.25 91.1361 488.25 127.645Z" fill="#3F3D56"/>
<path d="M547.766 144.161C551.418 144.161 554.379 141.204 554.379 137.555C554.379 133.906 551.418 130.949 547.766 130.949C544.114 130.949 541.153 133.906 541.153 137.555C541.153 141.204 544.114 144.161 547.766 144.161Z" fill="#3F3D56"/>
<path d="M477.669 143.501H475.024C475.024 134.03 480.364 126.324 486.927 126.324V128.967C481.822 128.967 477.669 135.487 477.669 143.501Z" fill="#3F3D56"/>
<path d="M498.831 143.501H496.186C496.186 135.487 492.032 128.967 486.927 128.967V126.324C493.491 126.324 498.831 134.03 498.831 143.501Z" fill="#3F3D56"/>
<path d="M497.508 146.804C498.969 146.804 500.153 145.621 500.153 144.161C500.153 142.702 498.969 141.519 497.508 141.519C496.047 141.519 494.863 142.702 494.863 144.161C494.863 145.621 496.047 146.804 497.508 146.804Z" fill="#3F3D56"/>
<path d="M476.347 146.804C477.808 146.804 478.992 145.621 478.992 144.161C478.992 142.702 477.808 141.519 476.347 141.519C474.886 141.519 473.702 142.702 473.702 144.161C473.702 145.621 474.886 146.804 476.347 146.804Z" fill="#3F3D56"/>
<path d="M157.574 55.355L111.118 63.2143C109.971 63.4099 108.791 63.1733 107.808 62.5502C106.825 61.9271 106.108 60.9618 105.797 59.8412C102.44 47.7392 95.4229 31.9516 102.236 24.0263C102.583 20.6922 104.204 17.6202 106.761 15.4499C109.318 13.2797 112.615 12.1783 115.965 12.3752C124.264 -0.602861 138.087 1.34571 147.43 9.45106C156.832 12.6923 160.377 18.4505 159.137 26.2647C163.199 29.8167 165.329 33.8177 165.778 38.2091C165.991 40.6528 165.68 43.1138 164.865 45.4279C164.05 47.7419 162.751 49.8558 161.054 51.6284L157.574 55.355Z" fill="#2F2E41"/>
<path d="M150.352 91.8927L114.338 89.7763C117.867 81.6835 119.277 73.8905 117.868 66.496H144.702C144.641 72.1735 147.47 81.9944 150.352 91.8927Z" fill="#9F616A"/>
<path d="M107.001 424.346L105.524 444.52C105.457 445.433 105.586 446.35 105.903 447.209C106.22 448.068 106.717 448.849 107.361 449.501C108.005 450.152 108.781 450.659 109.637 450.986C110.493 451.313 111.409 451.454 112.324 451.399L122.696 450.771C123.177 450.742 123.645 450.607 124.068 450.377C124.49 450.146 124.857 449.826 125.142 449.438C125.426 449.05 125.622 448.604 125.715 448.132C125.808 447.66 125.795 447.174 125.678 446.707L119.921 423.7L107.001 424.346Z" fill="#E6E6E6"/>
<path d="M140.581 423.7L134.823 446.707C134.706 447.174 134.694 447.66 134.787 448.132C134.879 448.604 135.075 449.05 135.36 449.438C135.644 449.826 136.011 450.146 136.434 450.377C136.856 450.607 137.325 450.742 137.805 450.771L148.178 451.399C149.092 451.454 150.009 451.313 150.864 450.986C151.72 450.659 152.496 450.152 153.14 449.501C153.784 448.849 154.282 448.068 154.598 447.209C154.915 446.35 155.045 445.433 154.978 444.52L153.501 424.346L140.581 423.7Z" fill="#E6E6E6"/>
<path d="M154.17 427.146L140.173 425.743L126.238 276.931L120.971 425.263L107.219 424.771L84.041 219.339H172.594L154.17 427.146Z" fill="#1E90FF"/>
<path d="M131.993 75.06C146.764 75.06 158.737 63.0979 158.737 48.3419C158.737 33.5859 146.764 21.6238 131.993 21.6238C117.223 21.6238 105.249 33.5859 105.249 48.3419C105.249 63.0979 117.223 75.06 131.993 75.06Z" fill="#9F616A"/>
<path d="M162.135 35.5783C151.281 33.6898 140.609 33.4305 130.234 35.8259C123.626 37.9872 115.69 37.788 106.864 36.0073V17.9897L154.512 18.8477L162.135 35.5783Z" fill="#2F2E41"/>
<path d="M149.792 69.7797C138.092 74.6416 125.824 74.4442 113.055 69.7797C116.77 63.4437 111.216 58.4814 108.365 52.0853L156.045 50.6697C152.399 56.2261 147.019 62.7909 149.792 69.7797Z" fill="white"/>
<path d="M105.082 48.4365L104.613 48.9986L109.303 52.9028L109.772 52.3407L105.082 48.4365Z" fill="white"/>
<path d="M156.909 56.3304L148.7 69.2138L149.317 69.6066L157.527 56.7232L156.909 56.3304Z" fill="white"/>
<path d="M105.937 56.3299L105.319 56.7226L113.526 69.6072L114.144 69.2145L105.937 56.3299Z" fill="white"/>
<path d="M81.1485 170.199L60.67 157.501L78.1345 106.401C80.0824 101.128 83.8133 96.7006 88.6822 93.8845L94.5654 90.4818L95.0769 142.032L81.1485 170.199Z" fill="#1E90FF"/>
<path d="M169.665 195.017L166.636 169.092C166.474 155.408 168.804 142.178 174.361 129.988L177.185 91.8927L146.115 79.1944C146.019 79.8269 145.938 80.4591 145.847 81.0915L131.285 88.3654L117.084 85.1409L117.162 80.6053L88.9161 93.3037C98.2571 136.688 93.1624 181.741 77.0992 234.957L114.311 245.122L114.62 227.271L147.784 224.905C148.126 230.696 148.4 236.385 148.559 241.947C167.273 248.83 167.915 248.716 184.966 238.861C178.176 224.599 172.799 209.758 169.665 195.017Z" fill="#1E90FF"/>
<path d="M217.436 163.85L198.37 157.501L167.873 122.032L177.185 91.8931L219.554 151.152L217.436 163.85Z" fill="#1E90FF"/>
<path d="M157.683 191.309C157.995 192.677 158.837 193.865 160.025 194.613C161.212 195.362 162.649 195.609 164.018 195.301L180.203 191.639L177.864 181.319L161.679 184.98C160.309 185.29 159.118 186.131 158.369 187.318C157.62 188.505 157.373 189.94 157.683 191.309V191.309Z" fill="#E6E6E6"/>
<path d="M172.242 179.37L181.422 196.301C196.863 191.999 210.245 178.436 223.085 162.439L219.555 151.152L197.664 156.795L172.242 179.37Z" fill="#1E90FF"/>
<path d="M52.549 126.261L70.1722 129.405L110.454 186.624L89.0544 181.594L52.549 126.261Z" fill="#E6E6E6"/>
<path d="M49.4232 125.561C49.1547 125.565 48.8922 125.641 48.6631 125.781C48.4341 125.921 48.2469 126.12 48.1212 126.357C47.9955 126.594 47.9359 126.861 47.9485 127.129C47.9612 127.397 48.0458 127.656 48.1933 127.881L85.846 184.953C86.0561 185.272 86.3807 185.499 86.7528 185.586L104.272 189.704C104.567 189.773 104.876 189.751 105.159 189.641C105.442 189.531 105.684 189.337 105.854 189.086C106.024 188.835 106.114 188.538 106.111 188.235C106.108 187.932 106.013 187.637 105.838 187.389L64.498 128.665C64.3859 128.505 64.2433 128.369 64.0784 128.264C63.9135 128.159 63.7295 128.088 63.537 128.054L49.7056 125.586C49.6124 125.569 49.5179 125.561 49.4232 125.561Z" fill="#3F3D56"/>
<path d="M72.9111 166.367L73.9576 176.897L90.4708 175.26C91.8686 175.121 93.154 174.433 94.0443 173.348C94.9346 172.263 95.3568 170.868 95.2181 169.472C95.0794 168.076 94.3911 166.791 93.3046 165.902C92.2181 165.013 90.8225 164.591 89.4247 164.729L72.9111 166.367Z" fill="#E6E6E6"/>
<path d="M58.5519 165.147C58.5759 168.738 60.0194 172.173 62.5678 174.705C65.1163 177.237 68.5632 178.661 72.1574 178.665H74.8727L76.8495 162.207L60.4821 156.321L58.5519 165.147Z" fill="#1E90FF"/>
<path d="M154.74 52.4903L154.223 51.9733L155.004 51.1923L159.675 45.7465L160.231 46.2219L155.541 51.6881L154.74 52.4903Z" fill="white"/>
<path d="M650 450.537H0V452H650V450.537Z" fill="#3F3D56"/>
<path d="M248.142 449.806H401.858V263.541C401.858 253.678 392.134 245.654 380.181 245.654H269.819C257.866 245.654 248.142 253.678 248.142 263.541V449.806Z" fill="#E6E6E6"/>
<path d="M259.854 442.104H390.146V284.222C390.146 275.861 381.904 269.06 371.772 269.06H278.228C268.096 269.06 259.854 275.861 259.854 284.222V442.104Z" fill="white"/>
<path d="M246.981 231.158C243.181 231.158 240.09 233.708 240.09 236.843V253.256C240.09 256.391 243.181 258.942 246.981 258.942H403.02C406.819 258.942 409.91 256.391 409.91 253.256V236.843C409.91 233.708 406.819 231.158 403.02 231.158H246.981Z" fill="#3F3D56"/>
<path d="M279.017 421.859C277.234 421.864 275.524 422.575 274.263 423.835C273.002 425.095 272.291 426.802 272.286 428.584C272.291 430.366 273.002 432.074 274.263 433.334C275.524 434.594 277.234 435.304 279.017 435.31H291.618V421.859H279.017Z" fill="#3F3D56"/>
<path d="M303.183 421.859H290.928V435.31H303.183C304.967 435.304 306.676 434.594 307.937 433.334C309.198 432.074 309.909 430.366 309.915 428.584C309.909 426.802 309.198 425.095 307.937 423.835C306.676 422.575 304.967 421.864 303.183 421.859Z" fill="#1E90FF"/>
<path opacity="0.2" d="M307.576 423.506C308.637 424.722 309.223 426.281 309.224 427.895C309.219 429.677 308.508 431.384 307.247 432.644C305.985 433.904 304.276 434.615 302.492 434.62H290.928V435.31H303.183C304.967 435.304 306.676 434.594 307.937 433.334C309.198 432.074 309.909 430.366 309.915 428.584C309.913 427.62 309.703 426.667 309.3 425.79C308.896 424.914 308.308 424.135 307.576 423.506Z" fill="black"/>
<path d="M335.878 320.56C334.651 319.267 332.961 318.511 331.178 318.459C329.395 318.406 327.664 319.06 326.362 320.279C325.068 321.505 324.312 323.193 324.259 324.975C324.206 326.756 324.862 328.485 326.081 329.786L334.724 338.946L344.521 329.72L335.878 320.56Z" fill="#3F3D56"/>
<path d="M352.454 338.127L344.048 329.218L334.251 338.444L342.657 347.353C343.884 348.646 345.574 349.401 347.357 349.454C349.14 349.507 350.872 348.852 352.173 347.634C353.468 346.407 354.224 344.719 354.276 342.938C354.329 341.157 353.674 339.427 352.454 338.127Z" fill="#1E90FF"/>
<path opacity="0.2" d="M354.268 342.45C354.11 344.056 353.376 345.551 352.202 346.659C350.9 347.877 349.169 348.532 347.386 348.479C345.603 348.426 343.913 347.671 342.686 346.378L334.753 337.971L334.251 338.444L342.657 347.353C343.884 348.646 345.574 349.401 347.357 349.454C349.14 349.507 350.872 348.852 352.173 347.634C352.875 346.971 353.425 346.165 353.786 345.27C354.148 344.375 354.312 343.414 354.268 342.45Z" fill="black"/>
<path d="M300.011 341.766C298.784 340.473 297.094 339.718 295.311 339.665C293.528 339.613 291.797 340.267 290.495 341.486C289.201 342.712 288.445 344.4 288.392 346.181C288.339 347.962 288.994 349.692 290.214 350.992L298.857 360.152L308.654 350.926L300.011 341.766Z" fill="#3F3D56"/>
<path d="M316.587 359.334L308.181 350.425L298.384 359.651L306.79 368.56C308.017 369.853 309.707 370.608 311.49 370.661C313.273 370.713 315.004 370.059 316.306 368.84C317.6 367.614 318.357 365.926 318.409 364.145C318.462 362.364 317.807 360.634 316.587 359.334Z" fill="#1E90FF"/>
<path opacity="0.2" d="M318.4 363.657C318.243 365.263 317.509 366.757 316.335 367.865C315.033 369.084 313.302 369.738 311.519 369.686C309.736 369.633 308.046 368.878 306.819 367.585L298.886 359.177L298.384 359.651L306.79 368.56C308.017 369.853 309.707 370.608 311.49 370.661C313.273 370.713 315.004 370.059 316.306 368.84C317.008 368.177 317.558 367.371 317.919 366.477C318.281 365.582 318.445 364.62 318.4 363.657Z" fill="black"/>
<path d="M335.878 361.511C334.651 360.217 332.961 359.462 331.178 359.409C329.395 359.357 327.664 360.011 326.362 361.23C325.068 362.456 324.312 364.144 324.259 365.925C324.206 367.707 324.862 369.436 326.081 370.737L334.724 379.897L344.521 370.671L335.878 361.511Z" fill="#3F3D56"/>
<path d="M352.454 379.078L344.048 370.169L334.251 379.395L342.657 388.304C343.884 389.597 345.574 390.352 347.357 390.405C349.14 390.458 350.872 389.803 352.173 388.585C353.468 387.358 354.224 385.67 354.276 383.889C354.329 382.108 353.674 380.378 352.454 379.078Z" fill="#1E90FF"/>
<path opacity="0.2" d="M354.268 383.401C354.11 385.007 353.376 386.502 352.202 387.609C350.9 388.828 349.169 389.482 347.386 389.43C345.603 389.377 343.913 388.622 342.686 387.329L334.753 378.922L334.251 379.395L342.657 388.304C343.884 389.597 345.574 390.352 347.357 390.405C349.14 390.458 350.872 389.803 352.173 388.585C352.875 387.922 353.425 387.115 353.786 386.221C354.148 385.326 354.312 384.364 354.268 383.401Z" fill="black"/>
<path d="M357.759 403.534C359.039 402.292 359.774 400.595 359.805 398.814C359.836 397.032 359.16 395.31 357.924 394.025C356.681 392.747 354.983 392.012 353.199 391.981C351.416 391.95 349.692 392.625 348.406 393.86L339.342 402.605L348.696 412.28L357.759 403.534Z" fill="#3F3D56"/>
<path d="M340.377 420.306L349.192 411.8L339.839 402.126L331.024 410.632C329.745 411.873 329.009 413.57 328.978 415.352C328.947 417.134 329.623 418.856 330.859 420.141C332.102 421.419 333.8 422.154 335.584 422.185C337.368 422.216 339.091 421.54 340.377 420.306Z" fill="#1E90FF"/>
<path opacity="0.2" d="M336.073 422.17C334.463 422.032 332.958 421.318 331.835 420.158C330.6 418.873 329.923 417.151 329.954 415.369C329.985 413.587 330.721 411.89 332 410.649L340.319 402.622L339.839 402.126L331.024 410.632C329.745 411.873 329.009 413.57 328.978 415.352C328.947 417.134 329.623 418.856 330.859 420.141C331.531 420.834 332.344 421.374 333.244 421.724C334.144 422.074 335.109 422.226 336.073 422.17Z" fill="black"/>
<path d="M309.448 382.328C310.728 381.086 311.463 379.389 311.494 377.607C311.525 375.825 310.849 374.103 309.614 372.818C308.371 371.54 306.672 370.805 304.888 370.774C303.105 370.743 301.382 371.419 300.095 372.653L291.032 381.398L300.385 391.073L309.448 382.328Z" fill="#3F3D56"/>
<path d="M292.067 399.099L300.882 390.594L291.528 380.919L282.713 389.425C281.434 390.667 280.698 392.364 280.667 394.146C280.636 395.927 281.312 397.649 282.548 398.934C283.791 400.212 285.49 400.947 287.273 400.978C289.057 401.009 290.78 400.334 292.067 399.099Z" fill="#1E90FF"/>
<path opacity="0.2" d="M287.762 400.963C286.152 400.826 284.647 400.111 283.524 398.951C282.289 397.666 281.613 395.944 281.644 394.162C281.675 392.381 282.41 390.684 283.69 389.442L292.008 381.415L291.528 380.919L282.713 389.425C281.434 390.667 280.698 392.364 280.667 394.146C280.636 395.927 281.312 397.649 282.548 398.934C283.22 399.627 284.034 400.167 284.933 400.517C285.833 400.867 286.798 401.02 287.762 400.963Z" fill="black"/>
<path d="M378.255 356.733C379.534 355.491 380.27 353.794 380.301 352.013C380.331 350.231 379.655 348.509 378.42 347.224C377.177 345.946 375.478 345.211 373.695 345.18C371.911 345.149 370.188 345.824 368.901 347.059L359.838 355.804L369.191 365.479L378.255 356.733Z" fill="#3F3D56"/>
<path d="M360.873 373.505L369.688 364.999L360.334 355.325L351.519 363.831C350.24 365.072 349.505 366.769 349.474 368.551C349.443 370.333 350.119 372.055 351.354 373.34C352.597 374.618 354.296 375.353 356.08 375.384C357.863 375.415 359.586 374.739 360.873 373.505Z" fill="#1E90FF"/>
<path opacity="0.2" d="M356.568 375.369C354.959 375.231 353.454 374.516 352.331 373.357C351.095 372.072 350.419 370.35 350.45 368.568C350.481 366.786 351.216 365.089 352.496 363.847L360.814 355.821L360.334 355.325L351.519 363.831C350.24 365.072 349.505 366.769 349.474 368.551C349.443 370.333 350.119 372.055 351.354 373.34C352.026 374.033 352.84 374.573 353.74 374.923C354.639 375.273 355.604 375.425 356.568 375.369Z" fill="black"/>
<path d="M362.962 409.774C361.734 408.481 360.045 407.726 358.262 407.673C356.479 407.62 354.747 408.275 353.446 409.493C352.151 410.72 351.395 412.408 351.342 414.189C351.29 415.97 351.945 417.7 353.165 419L361.808 428.16L371.605 418.934L362.962 409.774Z" fill="#3F3D56"/>
<path d="M379.537 427.341L371.131 418.432L361.334 427.658L369.74 436.567C370.968 437.861 372.658 438.616 374.441 438.669C376.224 438.721 377.955 438.067 379.256 436.848C380.551 435.622 381.307 433.934 381.36 432.153C381.412 430.371 380.757 428.642 379.537 427.341Z" fill="#1E90FF"/>
<path opacity="0.2" d="M381.351 431.664C381.193 433.27 380.46 434.765 379.285 435.873C377.984 437.092 376.252 437.746 374.469 437.693C372.686 437.641 370.997 436.885 369.769 435.592L361.837 427.185L361.334 427.658L369.74 436.567C370.968 437.861 372.658 438.616 374.441 438.669C376.224 438.721 377.955 438.067 379.256 436.848C379.958 436.185 380.508 435.379 380.87 434.484C381.231 433.59 381.395 432.628 381.351 431.664Z" fill="black"/>
<path d="M315.383 409.043C314.155 407.75 312.466 406.994 310.683 406.942C308.9 406.889 307.168 407.544 305.867 408.762C304.572 409.988 303.816 411.676 303.764 413.458C303.711 415.239 304.366 416.969 305.586 418.269L314.229 427.429L324.026 418.203L315.383 409.043Z" fill="#3F3D56"/>
<path d="M331.959 426.61L323.552 417.701L313.755 426.927L322.162 435.836C323.389 437.129 325.079 437.885 326.862 437.937C328.645 437.99 330.376 437.335 331.678 436.117C332.972 434.891 333.728 433.203 333.781 431.421C333.833 429.64 333.178 427.91 331.959 426.61Z" fill="#1E90FF"/>
<path opacity="0.2" d="M333.772 430.933C333.614 432.539 332.881 434.034 331.707 435.142C330.405 436.36 328.674 437.015 326.891 436.962C325.108 436.91 323.418 436.154 322.19 434.861L314.258 426.454L313.755 426.927L322.162 435.836C323.389 437.129 325.079 437.885 326.862 437.937C328.645 437.99 330.376 437.335 331.678 436.117C332.379 435.454 332.929 434.648 333.291 433.753C333.652 432.859 333.816 431.897 333.772 430.933Z" fill="black"/>
<path d="M328.775 384.916C328.776 387.152 328.003 389.319 326.588 391.051C325.172 392.783 323.202 393.974 321.009 394.421C319.727 394.68 318.407 394.68 317.125 394.421C314.933 393.973 312.962 392.783 311.547 391.051C310.132 389.319 309.359 387.152 309.359 384.916C309.359 382.68 310.132 380.513 311.547 378.781C312.962 377.049 314.933 375.859 317.125 375.411C318.407 375.152 319.727 375.152 321.009 375.411C323.202 375.858 325.172 377.049 326.588 378.781C328.003 380.513 328.776 382.68 328.775 384.916Z" fill="#1E90FF"/>
<path opacity="0.2" d="M321.009 375.411V394.421C319.727 394.68 318.407 394.68 317.125 394.421V375.411C318.407 375.152 319.727 375.152 321.009 375.411Z" fill="black"/>
<path d="M333.167 346.159C333.168 348.395 332.395 350.562 330.98 352.294C329.564 354.026 327.594 355.217 325.401 355.664C324.119 355.922 322.799 355.922 321.517 355.664C319.325 355.216 317.354 354.026 315.939 352.294C314.524 350.562 313.751 348.395 313.751 346.159C313.751 343.923 314.524 341.756 315.939 340.024C317.354 338.292 319.325 337.101 321.517 336.654C322.799 336.395 324.119 336.395 325.401 336.654C327.594 337.101 329.564 338.291 330.98 340.024C332.395 341.756 333.168 343.923 333.167 346.159Z" fill="#1E90FF"/>
<path opacity="0.2" d="M325.401 336.654V355.664C324.119 355.922 322.799 355.922 321.517 355.664V336.654C322.799 336.395 324.119 336.395 325.401 336.654Z" fill="black"/>
<path d="M333.167 401.735C333.168 403.971 332.395 406.138 330.98 407.87C329.564 409.602 327.594 410.793 325.401 411.24C324.119 411.499 322.799 411.499 321.517 411.24C319.325 410.792 317.354 409.602 315.939 407.87C314.524 406.138 313.751 403.971 313.751 401.735C313.751 399.499 314.524 397.332 315.939 395.6C317.354 393.868 319.325 392.678 321.517 392.23C322.799 391.972 324.119 391.972 325.401 392.23C327.594 392.677 329.564 393.868 330.98 395.6C332.395 397.332 333.168 399.499 333.167 401.735Z" fill="#1E90FF"/>
<path opacity="0.2" d="M325.401 392.23V411.24C324.119 411.499 322.799 411.499 321.517 411.24V392.23C322.799 391.972 324.119 391.972 325.401 392.23Z" fill="black"/>
<path d="M357.323 428.792C357.323 431.028 356.55 433.195 355.135 434.927C353.72 436.659 351.749 437.85 349.556 438.297C348.275 438.555 346.954 438.555 345.673 438.297C343.48 437.849 341.509 436.659 340.094 434.927C338.679 433.195 337.906 431.028 337.906 428.792C337.906 426.556 338.679 424.389 340.094 422.657C341.509 420.925 343.48 419.735 345.673 419.287C346.954 419.028 348.275 419.028 349.556 419.287C351.749 419.734 353.72 420.925 355.135 422.657C356.55 424.389 357.323 426.556 357.323 428.792Z" fill="#1E90FF"/>
<path opacity="0.2" d="M349.556 419.287V438.297C348.275 438.555 346.954 438.555 345.673 438.297V419.287C346.954 419.028 348.275 419.028 349.556 419.287Z" fill="black"/>
<path d="M378.661 379.01C380.273 380.562 381.299 382.622 381.565 384.842C381.831 387.062 381.321 389.306 380.122 391.193C379.419 392.294 378.502 393.244 377.427 393.986C375.582 395.253 373.357 395.844 371.127 395.66C368.896 395.476 366.798 394.528 365.186 392.977C363.575 391.425 362.55 389.365 362.284 387.145C362.018 384.925 362.527 382.682 363.726 380.794C364.429 379.693 365.345 378.743 366.421 378.001C368.265 376.734 370.491 376.142 372.721 376.326C374.952 376.51 377.05 377.458 378.661 379.01Z" fill="#1E90FF"/>
<path opacity="0.2" d="M366.421 378.001L380.122 391.193C379.419 392.294 378.502 393.244 377.427 393.986L363.726 380.794C364.429 379.693 365.345 378.743 366.421 378.001Z" fill="black"/>
<path d="M381.589 400.217C383.201 401.769 384.227 403.828 384.493 406.049C384.759 408.269 384.249 410.512 383.05 412.4C382.347 413.501 381.43 414.451 380.355 415.193C378.51 416.46 376.285 417.051 374.054 416.867C371.824 416.683 369.726 415.735 368.114 414.184C366.503 412.632 365.478 410.572 365.212 408.352C364.945 406.132 365.455 403.889 366.654 402.001C367.357 400.9 368.273 399.95 369.349 399.208C371.193 397.941 373.419 397.349 375.649 397.533C377.88 397.717 379.978 398.665 381.589 400.217Z" fill="#1E90FF"/>
<path opacity="0.2" d="M369.349 399.208L383.05 412.4C382.347 413.501 381.43 414.451 380.355 415.193L366.654 402.001C367.357 400.9 368.273 399.95 369.349 399.208Z" fill="black"/>
<path d="M294.483 405.336C296.095 406.887 297.121 408.947 297.387 411.167C297.653 413.387 297.143 415.631 295.944 417.519C295.241 418.62 294.324 419.57 293.249 420.312C291.405 421.579 289.179 422.17 286.949 421.986C284.718 421.802 282.62 420.854 281.009 419.302C279.397 417.751 278.372 415.691 278.106 413.471C277.84 411.251 278.349 409.007 279.548 407.12C280.251 406.018 281.167 405.069 282.243 404.326C284.087 403.059 286.313 402.468 288.543 402.652C290.774 402.836 292.872 403.784 294.483 405.336Z" fill="#1E90FF"/>
<path opacity="0.2" d="M282.243 404.326L295.944 417.519C295.241 418.62 294.325 419.57 293.249 420.312L279.548 407.12C280.251 406.018 281.168 405.069 282.243 404.326Z" fill="black"/>
<path opacity="0.2" d="M263.148 231.158H259.488V258.214H263.148V231.158Z" fill="black"/>
<path opacity="0.2" d="M284.375 231.158H280.715V258.214H284.375V231.158Z" fill="black"/>
<path opacity="0.2" d="M305.602 231.158H301.943V258.214H305.602V231.158Z" fill="black"/>
<path opacity="0.2" d="M326.83 231.158H323.17V258.214H326.83V231.158Z" fill="black"/>
<path opacity="0.2" d="M348.057 231.158H344.398V258.214H348.057V231.158Z" fill="black"/>
<path opacity="0.2" d="M369.285 231.158H365.625V258.214H369.285V231.158Z" fill="black"/>
<path opacity="0.2" d="M390.512 231.158H386.853V258.214H390.512V231.158Z" fill="black"/>
</svg>
