<svg width="17" height="13" viewBox="0 0 17 13" xmlns="http://www.w3.org/2000/svg">
<path d="M12.375 5C12.375 2.59375 9.80469 0.625 6.6875 0.625C3.54297 0.625 1 2.59375 1 5C1 5.95703 1.38281 6.80469 2.03906 7.51562C1.65625 8.36328 1.05469 9.01953 1.05469 9.01953C1 9.07422 0.972656 9.18359 1 9.26562C1.05469 9.34766 1.10938 9.375 1.21875 9.375C2.20312 9.375 3.02344 9.04688 3.625 8.69141C4.5 9.12891 5.56641 9.375 6.6875 9.375C9.80469 9.375 12.375 7.43359 12.375 5ZM15.7109 11.0156C16.3398 10.3047 16.75 9.45703 16.75 8.5C16.75 6.69531 15.2734 5.10938 13.1953 4.45312C13.2227 4.64453 13.25 4.83594 13.25 5C13.25 7.89844 10.2969 10.25 6.6875 10.25C6.38672 10.25 6.08594 10.25 5.8125 10.2227C6.66016 11.7812 8.68359 12.875 11.0625 12.875C12.1836 12.875 13.2227 12.6289 14.0977 12.1914C14.6992 12.5469 15.5195 12.875 16.5312 12.875C16.6133 12.875 16.6953 12.8477 16.7227 12.7656C16.75 12.6836 16.75 12.5742 16.668 12.5195C16.668 12.5195 16.0664 11.8633 15.7109 11.0156Z" />
</svg>
