<svg width="50" height="50" viewBox="0 0 50 50" fill="none" xmlns="http://www.w3.org/2000/svg">
<circle cx="25" cy="25" r="25" fill="#1E90FF"/>
<path d="M30.875 34C33.1523 34 35 32.1523 35 29.875V21.625C35 19.3477 33.1523 17.5 30.875 17.5H27.2656C26.9648 17.5 26.75 17.7578 26.75 18.0156V19.7344C26.75 20.0352 26.9648 20.25 27.2656 20.25H30.875C31.6055 20.25 32.25 20.8945 32.25 21.625V29.875C32.25 30.6484 31.6055 31.25 30.875 31.25H27.2656C26.9648 31.25 26.75 31.5078 26.75 31.7656V33.4844C26.75 33.7852 26.9648 34 27.2656 34H30.875ZM28.8555 25.3633L21.6367 18.1445C20.9922 17.5 19.875 17.9727 19.875 18.875V23H14.0312C13.4297 23 13 23.4727 13 24.0312V28.1562C13 28.7578 13.4297 29.1875 14.0312 29.1875H19.875V33.3125C19.875 34.2578 20.9922 34.6875 21.6367 34.043L28.8555 26.8242C29.2422 26.4375 29.2422 25.793 28.8555 25.3633Z" fill="white"/>
</svg>
