<svg width="148" height="26" viewBox="0 0 148 26" fill="none" xmlns="http://www.w3.org/2000/svg">
<path d="M39.7842 11.6543V14.3613H31.6846V11.6543H39.7842ZM32.791 5.35938V21H29.2891V5.35938H32.791ZM42.2012 5.35938V21H38.71V5.35938H42.2012ZM50.1074 21.2148C49.1836 21.2148 48.3564 21.068 47.626 20.7744C46.8955 20.4808 46.276 20.0762 45.7676 19.5605C45.2663 19.0378 44.8831 18.4362 44.6182 17.7559C44.3532 17.0755 44.2207 16.3486 44.2207 15.5752V15.167C44.2207 14.3005 44.3424 13.502 44.5859 12.7715C44.8294 12.041 45.1839 11.4072 45.6494 10.8701C46.1221 10.3258 46.7021 9.9069 47.3896 9.61328C48.0771 9.3125 48.8613 9.16211 49.7422 9.16211C50.5658 9.16211 51.2998 9.29818 51.9443 9.57031C52.5889 9.83529 53.1331 10.2184 53.5771 10.7197C54.0212 11.2139 54.3577 11.8118 54.5869 12.5137C54.8232 13.2083 54.9414 13.9889 54.9414 14.8555V16.2305H45.5742V14.0713H51.6543V13.8135C51.6543 13.4053 51.5791 13.0472 51.4287 12.7393C51.2855 12.4313 51.0706 12.195 50.7842 12.0303C50.5049 11.8584 50.1504 11.7725 49.7207 11.7725C49.3125 11.7725 48.9723 11.8584 48.7002 12.0303C48.4281 12.2021 48.2096 12.4456 48.0449 12.7607C47.8874 13.0687 47.7728 13.4303 47.7012 13.8457C47.6296 14.2539 47.5938 14.6943 47.5938 15.167V15.5752C47.5938 16.0264 47.6546 16.4382 47.7764 16.8105C47.8981 17.1829 48.0771 17.5016 48.3135 17.7666C48.5498 18.0316 48.8363 18.2393 49.1729 18.3896C49.5094 18.54 49.8926 18.6152 50.3223 18.6152C50.8522 18.6152 51.3571 18.515 51.8369 18.3145C52.3167 18.1068 52.7321 17.7845 53.083 17.3477L54.6514 19.1416C54.415 19.4854 54.082 19.8184 53.6523 20.1406C53.2298 20.4557 52.7214 20.7135 52.127 20.9141C51.5326 21.1146 50.8594 21.2148 50.1074 21.2148ZM62.7295 18.2285V13.2441C62.7295 12.8932 62.6758 12.5924 62.5684 12.3418C62.4609 12.0911 62.2926 11.8942 62.0635 11.751C61.8343 11.6077 61.5371 11.5361 61.1719 11.5361C60.8639 11.5361 60.5954 11.5898 60.3662 11.6973C60.1442 11.8047 59.9723 11.9587 59.8506 12.1592C59.736 12.3597 59.6787 12.6068 59.6787 12.9004H56.3271C56.3271 12.3776 56.4453 11.8906 56.6816 11.4395C56.918 10.9883 57.2546 10.5908 57.6914 10.2471C58.1354 9.90332 58.6654 9.63835 59.2812 9.45215C59.8971 9.25879 60.5882 9.16211 61.3545 9.16211C62.264 9.16211 63.0732 9.31608 63.7822 9.62402C64.4984 9.9248 65.0641 10.3796 65.4795 10.9883C65.8949 11.5898 66.1025 12.349 66.1025 13.2656V18.1318C66.1025 18.8337 66.1419 19.3851 66.2207 19.7861C66.3066 20.18 66.4284 20.5238 66.5859 20.8174V21H63.2021C63.0446 20.6634 62.9264 20.248 62.8477 19.7539C62.7689 19.2526 62.7295 18.7441 62.7295 18.2285ZM63.1484 13.9102L63.1699 15.7578H61.5049C61.1325 15.7578 60.8102 15.8044 60.5381 15.8975C60.2731 15.9906 60.0583 16.1195 59.8936 16.2842C59.7288 16.4417 59.6071 16.6279 59.5283 16.8428C59.4567 17.0505 59.4209 17.2796 59.4209 17.5303C59.4209 17.7666 59.4782 17.9814 59.5928 18.1748C59.7074 18.361 59.8649 18.5078 60.0654 18.6152C60.266 18.7227 60.4987 18.7764 60.7637 18.7764C61.2005 18.7764 61.5729 18.6904 61.8809 18.5186C62.196 18.3467 62.4395 18.139 62.6113 17.8955C62.7832 17.6449 62.8691 17.4121 62.8691 17.1973L63.6748 18.5938C63.5459 18.8802 63.3883 19.1774 63.2021 19.4854C63.016 19.7861 62.7796 20.069 62.4932 20.334C62.2067 20.5918 61.8594 20.8031 61.4512 20.9678C61.0501 21.1325 60.5667 21.2148 60.001 21.2148C59.2705 21.2148 58.6081 21.068 58.0137 20.7744C57.4193 20.4736 56.943 20.0618 56.585 19.5391C56.234 19.0163 56.0586 18.4147 56.0586 17.7344C56.0586 17.1257 56.1696 16.585 56.3916 16.1123C56.6136 15.6396 56.9466 15.2386 57.3906 14.9092C57.8418 14.5798 58.4076 14.3327 59.0879 14.168C59.7682 13.9961 60.5632 13.9102 61.4727 13.9102H63.1484ZM71.8389 4.5V21H68.4766V4.5H71.8389ZM80.1641 9.37695V11.7295H73.2676V9.37695H80.1641ZM74.8467 6.49805H78.209V17.3584C78.209 17.6807 78.2484 17.9277 78.3271 18.0996C78.4059 18.2715 78.5348 18.3932 78.7139 18.4648C78.8929 18.5293 79.1221 18.5615 79.4014 18.5615C79.6019 18.5615 79.7738 18.5544 79.917 18.54C80.0602 18.5257 80.1927 18.5078 80.3145 18.4863V20.9141C80.028 21.0072 79.7236 21.0788 79.4014 21.1289C79.0791 21.1862 78.7282 21.2148 78.3486 21.2148C77.6253 21.2148 76.9987 21.0967 76.4688 20.8604C75.946 20.624 75.5449 20.2516 75.2656 19.7432C74.9863 19.2275 74.8467 18.5579 74.8467 17.7344V6.49805ZM85.0518 4.5V21H81.7002V4.5H85.0518ZM84.6113 14.7803L83.7734 14.8018C83.7734 13.9854 83.8737 13.237 84.0742 12.5566C84.2819 11.8691 84.5755 11.2712 84.9551 10.7627C85.3346 10.2542 85.7894 9.86035 86.3193 9.58105C86.8564 9.30176 87.4473 9.16211 88.0918 9.16211C88.6647 9.16211 89.1875 9.24447 89.6602 9.40918C90.1328 9.57389 90.541 9.83529 90.8848 10.1934C91.2285 10.5514 91.4935 11.0205 91.6797 11.6006C91.8659 12.1807 91.959 12.8861 91.959 13.7168V21H88.5859V13.6953C88.5859 13.2012 88.5143 12.8145 88.3711 12.5352C88.235 12.2559 88.0345 12.0589 87.7695 11.9443C87.5117 11.8298 87.1966 11.7725 86.8242 11.7725C86.3874 11.7725 86.0257 11.8512 85.7393 12.0088C85.4528 12.1592 85.2272 12.3704 85.0625 12.6426C84.8978 12.9147 84.7796 13.2334 84.708 13.5986C84.6436 13.9639 84.6113 14.3577 84.6113 14.7803Z" fill="#1C1C1C"/>
<path d="M103.872 17.1543C103.872 16.7246 103.8 16.3415 103.657 16.0049C103.514 15.6683 103.278 15.3675 102.948 15.1025C102.626 14.8304 102.189 14.5798 101.638 14.3506C101.093 14.1143 100.413 13.8815 99.5967 13.6523C98.8161 13.4303 98.1107 13.1868 97.4805 12.9219C96.8503 12.6569 96.3096 12.3525 95.8584 12.0088C95.4144 11.665 95.0742 11.264 94.8379 10.8057C94.6016 10.3402 94.4834 9.79948 94.4834 9.18359C94.4834 8.58203 94.6123 8.03418 94.8701 7.54004C95.1279 7.0459 95.4896 6.61979 95.9551 6.26172C96.4277 5.90365 96.9827 5.62793 97.6201 5.43457C98.2646 5.24121 98.9701 5.14453 99.7363 5.14453C100.832 5.14453 101.777 5.35221 102.572 5.76758C103.374 6.18294 103.994 6.74512 104.431 7.4541C104.875 8.15592 105.097 8.94368 105.097 9.81738H103.775C103.775 9.13704 103.614 8.5319 103.292 8.00195C102.977 7.46484 102.519 7.0459 101.917 6.74512C101.323 6.43717 100.596 6.2832 99.7363 6.2832C98.877 6.2832 98.1536 6.41569 97.5664 6.68066C96.9863 6.93848 96.5459 7.28581 96.2451 7.72266C95.9515 8.15234 95.8047 8.63216 95.8047 9.16211C95.8047 9.53451 95.8763 9.87826 96.0195 10.1934C96.1628 10.5013 96.3955 10.7913 96.7178 11.0635C97.0472 11.3285 97.4805 11.5791 98.0176 11.8154C98.5547 12.0446 99.2171 12.263 100.005 12.4707C100.836 12.6999 101.573 12.9541 102.218 13.2334C102.862 13.5127 103.407 13.835 103.851 14.2002C104.295 14.5583 104.631 14.9772 104.86 15.457C105.09 15.9368 105.204 16.4954 105.204 17.1328C105.204 17.7702 105.068 18.3431 104.796 18.8516C104.531 19.3529 104.155 19.779 103.668 20.1299C103.188 20.4808 102.619 20.7493 101.96 20.9355C101.308 21.1217 100.596 21.2148 99.8223 21.2148C99.1276 21.2148 98.4365 21.1253 97.749 20.9463C97.0615 20.7673 96.4313 20.4915 95.8584 20.1191C95.2926 19.7396 94.8379 19.2526 94.4941 18.6582C94.1576 18.0638 93.9893 17.3548 93.9893 16.5312H95.2998C95.2998 17.1901 95.4323 17.7451 95.6973 18.1963C95.9622 18.6475 96.3132 19.0127 96.75 19.292C97.194 19.5713 97.681 19.7754 98.2109 19.9043C98.748 20.026 99.2852 20.0869 99.8223 20.0869C100.646 20.0869 101.358 19.9652 101.96 19.7217C102.569 19.4782 103.038 19.138 103.367 18.7012C103.704 18.2572 103.872 17.7415 103.872 17.1543ZM112.154 9.37695V10.4297H106.332V9.37695H112.154ZM108.47 6.39062H109.748V18.1748C109.748 18.7119 109.82 19.1165 109.963 19.3887C110.106 19.6608 110.292 19.8434 110.521 19.9365C110.751 20.0296 110.998 20.0762 111.263 20.0762C111.456 20.0762 111.642 20.0654 111.821 20.0439C112 20.0153 112.161 19.9867 112.305 19.958L112.358 21.043C112.201 21.0931 111.997 21.1325 111.746 21.1611C111.495 21.1969 111.245 21.2148 110.994 21.2148C110.5 21.2148 110.063 21.1253 109.684 20.9463C109.304 20.7601 109.007 20.445 108.792 20.001C108.577 19.5498 108.47 18.9375 108.47 18.1641V6.39062ZM122.295 18.3145V9.37695H123.584V21H122.349L122.295 18.3145ZM122.531 16.166L123.197 16.1445C123.197 16.875 123.111 17.5482 122.939 18.1641C122.768 18.7799 122.499 19.3171 122.134 19.7754C121.769 20.2337 121.296 20.5882 120.716 20.8389C120.136 21.0895 119.438 21.2148 118.621 21.2148C118.055 21.2148 117.536 21.1361 117.063 20.9785C116.598 20.8138 116.197 20.556 115.86 20.2051C115.524 19.8542 115.262 19.3994 115.076 18.8408C114.897 18.2822 114.808 17.6055 114.808 16.8105V9.37695H116.086V16.832C116.086 17.4551 116.154 17.9743 116.29 18.3896C116.433 18.805 116.627 19.138 116.87 19.3887C117.121 19.6393 117.407 19.8184 117.729 19.9258C118.052 20.0332 118.399 20.0869 118.771 20.0869C119.717 20.0869 120.462 19.9043 121.006 19.5391C121.557 19.1738 121.948 18.694 122.177 18.0996C122.413 17.498 122.531 16.8535 122.531 16.166ZM134.498 18.7441V4.5H135.787V21H134.584L134.498 18.7441ZM126.431 15.3066V15.0811C126.431 14.1787 126.535 13.3659 126.742 12.6426C126.95 11.9121 127.247 11.2891 127.634 10.7734C128.028 10.2507 128.5 9.85319 129.052 9.58105C129.603 9.30176 130.226 9.16211 130.921 9.16211C131.601 9.16211 132.203 9.27311 132.726 9.49512C133.248 9.71712 133.696 10.0358 134.068 10.4512C134.448 10.8665 134.752 11.3607 134.981 11.9336C135.218 12.5065 135.39 13.1439 135.497 13.8457V16.7139C135.411 17.3727 135.254 17.9779 135.024 18.5293C134.795 19.0736 134.491 19.5498 134.111 19.958C133.732 20.359 133.273 20.6706 132.736 20.8926C132.206 21.1074 131.594 21.2148 130.899 21.2148C130.212 21.2148 129.592 21.0716 129.041 20.7852C128.49 20.4987 128.021 20.0941 127.634 19.5713C127.247 19.0413 126.95 18.4147 126.742 17.6914C126.535 16.9681 126.431 16.1732 126.431 15.3066ZM127.72 15.0811V15.3066C127.72 15.987 127.788 16.6172 127.924 17.1973C128.06 17.7773 128.268 18.2822 128.547 18.7119C128.826 19.1416 129.181 19.4782 129.61 19.7217C130.04 19.9652 130.549 20.0869 131.136 20.0869C131.873 20.0869 132.493 19.9473 132.994 19.668C133.495 19.3815 133.896 19.0055 134.197 18.54C134.498 18.0674 134.716 17.5518 134.853 16.9932V13.6523C134.767 13.2728 134.641 12.8861 134.477 12.4922C134.312 12.0983 134.086 11.7367 133.8 11.4072C133.521 11.0706 133.162 10.8021 132.726 10.6016C132.296 10.3939 131.773 10.29 131.157 10.29C130.563 10.29 130.051 10.4118 129.621 10.6553C129.191 10.8988 128.833 11.2389 128.547 11.6758C128.268 12.1055 128.06 12.6104 127.924 13.1904C127.788 13.7705 127.72 14.4007 127.72 15.0811ZM142.619 19.8398L146.239 9.37695H147.625L142.705 22.8691C142.605 23.1341 142.476 23.4277 142.318 23.75C142.168 24.0723 141.967 24.3802 141.717 24.6738C141.473 24.9746 141.165 25.2181 140.793 25.4043C140.428 25.5977 139.98 25.6943 139.45 25.6943C139.314 25.6943 139.139 25.6764 138.924 25.6406C138.716 25.612 138.566 25.5833 138.473 25.5547L138.462 24.4697C138.541 24.4912 138.655 24.5091 138.806 24.5234C138.956 24.5378 139.06 24.5449 139.117 24.5449C139.583 24.5449 139.973 24.4661 140.288 24.3086C140.61 24.151 140.879 23.9147 141.094 23.5996C141.309 23.2917 141.498 22.9049 141.663 22.4395L142.619 19.8398ZM139.235 9.37695L142.941 19.3564L143.285 20.6992L142.351 21.2256L137.839 9.37695H139.235Z" fill="#1E90FF"/>
<path d="M9.63672 9.26953L12.043 11.6758C12.1719 11.8047 12.1719 12.0195 12.043 12.1484L11.5273 12.6641C11.3984 12.793 11.1836 12.793 11.0547 12.6641L8.64844 10.2578L6.71484 12.1914L9.12109 14.5977C9.25 14.7266 9.25 14.9414 9.12109 15.0703L8.64844 15.5859C8.51953 15.7148 8.26172 15.7148 8.13281 15.5859L5.76953 13.1797L4.60938 14.2969C3.87891 15.0273 3.53516 16.0586 3.62109 17.0898L3.92188 19.8398L1.08594 22.6758C0.957031 22.8477 0.957031 23.0625 1.08594 23.1914L1.55859 23.6641C1.6875 23.793 1.90234 23.793 2.03125 23.6641L4.91016 20.8281L7.61719 21.1289C8.64844 21.2148 9.67969 20.8711 10.4531 20.1406L18.2734 12.3203L12.4297 6.47656L9.63672 9.26953ZM22.8711 5.27344L19.4766 1.87891C19.3477 1.75 19.1328 1.75 19.0039 1.87891L18.4883 2.35156C18.3594 2.48047 18.3594 2.69531 18.4883 2.82422L19.7344 4.07031L17.7578 6.00391L15.3516 3.55469L14.6211 2.82422C14.4922 2.69531 14.2773 2.69531 14.1484 2.82422L12.6875 4.28516C12.5586 4.41406 12.5586 4.62891 12.6875 4.80078L13.418 5.53125L19.2188 11.332L19.9492 12.0625C20.0781 12.2344 20.3359 12.2344 20.4648 12.0625L21.9258 10.6016C22.0547 10.4727 22.0547 10.2578 21.9258 10.1289L18.7461 6.99219L20.6797 5.01562L21.9258 6.26172C22.0547 6.39062 22.2695 6.39062 22.3984 6.26172L22.8711 5.74609C23 5.61719 23 5.40234 22.8711 5.27344Z" fill="#1E90FF"/>
</svg>
