<svg width="50" height="50" viewBox="0 0 50 50" fill="none" xmlns="http://www.w3.org/2000/svg">
<circle cx="25" cy="25" r="25" fill="#1E90FF"/>
<path d="M35.6875 16.125H15.0625C13.9023 16.125 13 17.0703 13 18.1875V33.3125C13 34.4727 13.9023 35.375 15.0625 35.375H35.6875C36.8047 35.375 37.75 34.4727 37.75 33.3125V18.1875C37.75 17.0703 36.8047 16.125 35.6875 16.125ZM20.5625 20.25C22.0664 20.25 23.3125 21.4961 23.3125 23C23.3125 24.5469 22.0664 25.75 20.5625 25.75C19.0156 25.75 17.8125 24.5469 17.8125 23C17.8125 21.4961 19.0156 20.25 20.5625 20.25ZM25.375 30.4336C25.375 30.9062 24.9453 31.25 24.3867 31.25H16.6953C16.1797 31.25 15.75 30.9062 15.75 30.4336V29.6172C15.75 28.2422 17.0391 27.125 18.6289 27.125H18.8438C19.3594 27.3828 19.918 27.4688 20.5625 27.4688C21.1641 27.4688 21.7227 27.3828 22.2383 27.125H22.4531C24.043 27.125 25.375 28.2422 25.375 29.6172V30.4336ZM35 28.1562C35 28.3711 34.8281 28.5 34.6562 28.5H28.4688C28.2539 28.5 28.125 28.3711 28.125 28.1562V27.4688C28.125 27.2969 28.2539 27.125 28.4688 27.125H34.6562C34.8281 27.125 35 27.2969 35 27.4688V28.1562ZM35 25.4062C35 25.6211 34.8281 25.75 34.6562 25.75H28.4688C28.2539 25.75 28.125 25.6211 28.125 25.4062V24.7188C28.125 24.5469 28.2539 24.375 28.4688 24.375H34.6562C34.8281 24.375 35 24.5469 35 24.7188V25.4062ZM35 22.6562C35 22.8711 34.8281 23 34.6562 23H28.4688C28.2539 23 28.125 22.8711 28.125 22.6562V21.9688C28.125 21.7969 28.2539 21.625 28.4688 21.625H34.6562C34.8281 21.625 35 21.7969 35 21.9688V22.6562Z" fill="white"/>
</svg>
