<svg width="14" height="13" viewBox="0 0 14 13" xmlns="http://www.w3.org/2000/svg">
<path d="M0.4375 3.25H11.8125C12.0312 3.25 12.25 3.05859 12.25 2.8125V1.0625C12.25 0.84375 12.0312 0.625 11.8125 0.625H0.4375C0.191406 0.625 0 0.84375 0 1.0625V2.8125C0 3.05859 0.191406 3.25 0.4375 3.25ZM13.5625 5.4375H2.1875C1.94141 5.4375 1.75 5.65625 1.75 5.875V7.625C1.75 7.87109 1.94141 8.0625 2.1875 8.0625H13.5625C13.7812 8.0625 14 7.87109 14 7.625V5.875C14 5.65625 13.7812 5.4375 13.5625 5.4375ZM11.8125 10.25H0.4375C0.191406 10.25 0 10.4688 0 10.6875V12.4375C0 12.6836 0.191406 12.875 0.4375 12.875H11.8125C12.0312 12.875 12.25 12.6836 12.25 12.4375V10.6875C12.25 10.4688 12.0312 10.25 11.8125 10.25Z"/>
</svg>
